/* XPM */
static char * 6_xpm[] = {
"22 25 2 1",
" 	c None",
".	c #000000",
"         ......       ",
"        .......       ",
"       .......        ",
"      .......         ",
"     .......          ",
"    .......           ",
"   .......            ",
"   ......             ",
"  ....... .           ",
"  ............        ",
" ..............       ",
" ...............      ",
".................     ",
".......   .......     ",
"......     ......     ",
"......      .....     ",
"......      .....     ",
"......      .....     ",
"......     ......     ",
" .......  .......     ",
" ................     ",
"  ..............      ",
"  .............       ",
"    ..........        ",
"     .......          "};
